<svg width="24" height="18" viewBox="0 0 24 18" fill="none" xmlns="http://www.w3.org/2000/svg">
<path d="M1.71429 3.42857H22.2857C23.232 3.42857 24 2.66057 24 1.71429C24 0.768 23.232 0 22.2857 0H1.71429C0.768 0 0 0.768 0 1.71429C0 2.66057 0.768 3.42857 1.71429 3.42857ZM22.2857 6.85714H1.71429C0.768 6.85714 0 7.62514 0 8.57143C0 9.51771 0.768 10.2857 1.71429 10.2857H22.2857C23.232 10.2857 24 9.51771 24 8.57143C24 7.62514 23.232 6.85714 22.2857 6.85714ZM22.2857 13.7143H1.71429C0.768 13.7143 0 14.4823 0 15.4286C0 16.3749 0.768 17.1429 1.71429 17.1429H22.2857C23.232 17.1429 24 16.3749 24 15.4286C24 14.4823 23.232 13.7143 22.2857 13.7143Z" fill="#FFC107"/>
</svg>
