<svg width="21" height="20" viewBox="0 0 21 20" fill="none" xmlns="http://www.w3.org/2000/svg">
<path fill-rule="evenodd" clip-rule="evenodd" d="M5.33337 0C2.57195 0 0.333374 2.23858 0.333374 5V15C0.333374 17.7614 2.57195 20 5.33337 20H15.3334C18.0948 20 20.3334 17.7614 20.3334 15V5C20.3334 2.23858 18.0948 0 15.3334 0H5.33337ZM6.41108 7.74234V16.7104H3.41827V7.74234H6.41108ZM6.60835 4.96887C6.60835 5.82947 5.95874 6.51811 4.9153 6.51811L4.91507 6.51803H4.89569C3.89124 6.51803 3.24186 5.82939 3.24186 4.96879C3.24186 4.08865 3.91085 3.41923 4.93514 3.41923C5.95874 3.41923 6.58882 4.08865 6.60835 4.96887ZM11.0602 16.7104H8.06764L8.06757 16.7107C8.06757 16.7107 8.10686 8.58396 8.0678 7.74265H11.0605V9.01204C11.4583 8.40109 12.1703 7.53209 13.7577 7.53209C15.7267 7.53209 17.203 8.81389 17.203 11.5684V16.7104H14.2105V11.9132C14.2105 10.7075 13.7771 9.88521 12.6944 9.88521C11.8675 9.88521 11.3751 10.4398 11.1588 10.9755C11.0798 11.1667 11.0602 11.4351 11.0602 11.7028V16.7104Z" fill="#006699"/>
</svg>
