<svg width="20" height="20" viewBox="0 0 20 20" fill="none" xmlns="http://www.w3.org/2000/svg">
<path fill-rule="evenodd" clip-rule="evenodd" d="M5 0C2.23858 0 0 2.23858 0 5V15C0 17.7614 2.23858 20 5 20H15C17.7614 20 20 17.7614 20 15V5C20 2.23858 17.7614 0 15 0H5ZM15.3 7.71326C15.3 11.2995 12.5493 15.4603 7.50328 15.4603C5.96145 15.4603 4.52475 15.0077 3.33333 14.2243C3.54358 14.2417 3.75383 14.2591 3.9816 14.2591C5.26062 14.2591 6.43452 13.8239 7.38064 13.0927C6.18922 13.0579 5.17302 12.2744 4.8226 11.1951C4.98029 11.2299 5.1555 11.2473 5.33071 11.2473C5.576 11.2473 5.82129 11.2125 6.04906 11.1429C4.78756 10.8991 3.84144 9.80235 3.84144 8.47926V8.44444C4.20937 8.65335 4.62987 8.77522 5.08541 8.79263C4.34954 8.30517 3.85896 7.46953 3.85896 6.52944C3.85896 6.04199 3.99912 5.57194 4.22689 5.17153C5.59352 6.8254 7.60841 7.90476 9.88612 8.02663C9.83355 7.81772 9.81603 7.60881 9.81603 7.3999C9.81603 5.8853 11.0425 4.66667 12.5668 4.66667C13.3552 4.66667 14.0561 4.99744 14.5642 5.53712C15.1774 5.41526 15.7731 5.18894 16.2987 4.87558C16.0885 5.51971 15.6505 6.0594 15.0898 6.39017C15.6505 6.32053 16.1761 6.16385 16.6667 5.95494C16.2987 6.49462 15.8432 6.98208 15.3 7.36508V7.71326Z" fill="#1DA1F2"/>
</svg>
